<svg xmlns="http://www.w3.org/2000/svg" width="35" height="35" viewBox="0 0 35 35">
  <g id="rodape-insta" transform="translate(-356 -3708)">
    <g id="Grupo_380" data-name="Grupo 380" transform="translate(2 -109)">
      <g id="Elipse_22" data-name="Elipse 22" transform="translate(354 3817)" fill="#e2c224" stroke="#1a1818" stroke-width="1">
        <circle cx="17.5" cy="17.5" r="17.5" stroke="none"/>
        <circle cx="17.5" cy="17.5" r="17" fill="none"/>
      </g>
      <g id="instagram-plugin" transform="translate(364 3827)">
        <g id="Grupo_88" data-name="Grupo 88" transform="translate(0 0)">
          <path id="Caminho_154" data-name="Caminho 154" d="M121.615,85.988c2.13,0,2.382.008,3.224.047a4.406,4.406,0,0,1,1.481.274,2.642,2.642,0,0,1,1.514,1.514,4.425,4.425,0,0,1,.275,1.482c.038.841.047,1.093.047,3.223s-.008,2.383-.047,3.224a4.415,4.415,0,0,1-.275,1.481,2.641,2.641,0,0,1-1.514,1.515,4.405,4.405,0,0,1-1.481.274c-.842.038-1.093.047-3.224.047s-2.382-.008-3.223-.047a4.411,4.411,0,0,1-1.482-.274,2.647,2.647,0,0,1-1.514-1.515,4.4,4.4,0,0,1-.274-1.481c-.038-.841-.047-1.093-.047-3.224s.008-2.382.047-3.223a4.411,4.411,0,0,1,.274-1.482,2.648,2.648,0,0,1,1.514-1.514,4.411,4.411,0,0,1,1.482-.274c.841-.038,1.093-.047,3.223-.047m0-1.437c-2.167,0-2.438.009-3.289.048a5.842,5.842,0,0,0-1.937.371,4.074,4.074,0,0,0-2.333,2.333,5.837,5.837,0,0,0-.371,1.936c-.039.851-.048,1.123-.048,3.289s.009,2.439.048,3.29a5.837,5.837,0,0,0,.371,1.936,4.074,4.074,0,0,0,2.333,2.333,5.861,5.861,0,0,0,1.937.371c.851.039,1.122.048,3.289.048s2.438-.009,3.289-.048a5.861,5.861,0,0,0,1.937-.371,4.078,4.078,0,0,0,2.333-2.333,5.856,5.856,0,0,0,.371-1.936c.039-.851.048-1.123.048-3.29s-.009-2.438-.048-3.289a5.856,5.856,0,0,0-.371-1.936,4.078,4.078,0,0,0-2.333-2.333A5.842,5.842,0,0,0,124.9,84.6c-.851-.039-1.122-.048-3.289-.048" transform="translate(-113.637 -84.551)" fill="#1a1818"/>
          <path id="Caminho_155" data-name="Caminho 155" d="M122.81,89.627a4.1,4.1,0,1,0,4.1,4.1,4.1,4.1,0,0,0-4.1-4.1m0,6.757a2.66,2.66,0,1,1,2.659-2.66,2.66,2.66,0,0,1-2.659,2.66" transform="translate(-114.832 -85.746)" fill="#1a1818"/>
          <path id="Caminho_156" data-name="Caminho 156" d="M130.3,89.12a.957.957,0,1,1-.957-.957.957.957,0,0,1,.957.957" transform="translate(-117.11 -85.401)" fill="#1a1818"/>
        </g>
      </g>
    </g>
  </g>
</svg>
