<svg id="rodape_tiktok" xmlns="http://www.w3.org/2000/svg" width="35" height="35" viewBox="0 0 35 35">
  <path id="Caminho_2984" data-name="Caminho 2984" d="M17.5,0A17.5,17.5,0,1,1,0,17.5,17.5,17.5,0,0,1,17.5,0Zm3.931,7.247c0,.313.093,4.842,4.845,5.124,0,1.306,0,2.252,0,3.5a8.33,8.33,0,0,1-4.851-1.717l-.005,6.811c.066,4.728-3.413,7.6-7.961,6.61C5.617,25.229,8.223,13.6,16.1,14.843c0,3.755,0,0,0,3.755-3.253-.479-4.341,2.227-3.476,4.165a2.892,2.892,0,0,0,5.155-.342,6.58,6.58,0,0,0,.191-1.666V7.23Z" fill="#e2c224" fill-rule="evenodd"/>
</svg>
